<svg width="982" height="959" viewBox="0 0 982 959" fill="none" xmlns="http://www.w3.org/2000/svg">
<g filter="url(#filter0_d)">
<ellipse cx="185.5" cy="711.5" rx="353.5" ry="359.5" fill="url(#paint0_linear)"/>
</g>
<circle cx="-38.5" cy="322.5" r="322.5" fill="url(#paint1_linear)"/>
<circle cx="659.5" cy="1027.5" r="322.5" fill="url(#paint2_linear)"/>
<rect x="125" y="701" width="520" height="96" rx="48" fill="black" fill-opacity="0.15"/>
<g clip-path="url(#clip0)">
<path d="M514.139 581.464V708.259L537.46 742.824L539.235 745.453H631.256L633.115 581.464H514.139Z" fill="#E6E6E6"/>
<path opacity="0.1" d="M514.139 581.464V708.259L537.46 742.824L538.891 581.464H514.139Z" fill="black"/>
<path d="M291.987 578.082V704.878L268.666 739.443L266.891 742.072H174.87L173.011 578.082H291.987Z" fill="#E6E6E6"/>
<path opacity="0.1" d="M291.987 578.082V704.878L268.666 739.443L267.235 578.082H291.987Z" fill="black"/>
<path d="M661 575.547V583.154H160.927V572.165L207.402 550.187H620.102L661 575.547Z" fill="#E6E6E6"/>
<path opacity="0.1" d="M661 575.547V583.154H160.927V572.165L661 575.547Z" fill="black"/>
<path d="M232.5 613.585H210.191L200.896 607.668H242.724L232.5 613.585Z" fill="#3F3D56"/>
<path d="M232.5 638.099H210.191L200.896 632.182H242.724L232.5 638.099Z" fill="#3F3D56"/>
<path d="M232.5 672.757H210.191L200.896 666.839H242.724L232.5 672.757Z" fill="#3F3D56"/>
<path d="M232.5 707.414H210.191L200.896 701.497H242.724L232.5 707.414Z" fill="#3F3D56"/>
<path d="M573.627 616.966H595.935L605.23 611.049H563.402L573.627 616.966Z" fill="#3F3D56"/>
<path d="M573.627 641.48H595.935L605.23 635.563H563.402L573.627 641.48Z" fill="#3F3D56"/>
<path d="M573.627 676.138H595.935L605.23 670.221H563.402L573.627 676.138Z" fill="#3F3D56"/>
<path d="M573.627 710.795H595.935L605.23 704.878H563.402L573.627 710.795Z" fill="#3F3D56"/>
<path d="M588.818 403.561H401.015C400.082 403.561 399.158 403.728 398.297 404.052C397.435 404.377 396.652 404.852 395.992 405.452C395.333 406.052 394.81 406.764 394.453 407.548C394.096 408.332 393.912 409.172 393.912 410.02V525.069C393.912 525.918 394.096 526.758 394.453 527.541C394.81 528.325 395.333 529.037 395.992 529.637C396.652 530.237 397.435 530.712 398.297 531.037C399.158 531.362 400.082 531.529 401.015 531.528H472.307L469.636 547.036C469.636 547.036 454.372 554.411 465.104 554.628C475.837 554.845 526.398 554.628 526.398 554.628C526.398 554.628 536.177 554.628 520.674 546.82L518.162 531.528H588.818C589.751 531.529 590.674 531.362 591.536 531.037C592.398 530.712 593.181 530.237 593.841 529.637C594.5 529.037 595.023 528.325 595.38 527.541C595.737 526.758 595.921 525.918 595.921 525.069V410.02C595.921 409.172 595.737 408.332 595.38 407.548C595.023 406.764 594.5 406.052 593.841 405.452C593.181 404.852 592.398 404.377 591.536 404.052C590.674 403.728 589.751 403.561 588.818 403.561V403.561Z" fill="#3F3D56"/>
<path d="M589.123 410.393H400.71V506.26H589.123V410.393Z" fill="#F2F2F2"/>
<path d="M494.916 408.441C495.575 408.441 496.109 407.955 496.109 407.356C496.109 406.757 495.575 406.272 494.916 406.272C494.258 406.272 493.724 406.757 493.724 407.356C493.724 407.955 494.258 408.441 494.916 408.441Z" fill="#F2F2F2"/>
<path d="M494.916 526.865C497.419 526.865 499.448 525.02 499.448 522.744C499.448 520.468 497.419 518.623 494.916 518.623C492.414 518.623 490.385 520.468 490.385 522.744C490.385 525.02 492.414 526.865 494.916 526.865Z" fill="#F2F2F2"/>
<path d="M487.855 566.34V568.509H359.543V566.774L359.72 566.34L362.882 558.532H485.232L487.855 566.34Z" fill="#3F3D56"/>
<path d="M537.234 564.217C537 565.125 536.118 566.084 534.124 566.991C526.969 570.244 512.42 566.123 512.42 566.123C512.42 566.123 501.211 564.388 501.211 559.833C501.526 559.637 501.854 559.46 502.194 559.302C505.202 557.855 515.176 554.283 532.861 559.453C534.164 559.825 535.327 560.519 536.222 561.456C536.619 561.811 536.917 562.246 537.093 562.726C537.269 563.206 537.317 563.717 537.234 564.217Z" fill="#3F3D56"/>
<path opacity="0.1" d="M537.234 564.217C528.476 567.268 520.67 567.496 512.659 562.436C509.629 560.399 505.961 559.301 502.194 559.302C505.202 557.855 515.176 554.283 532.861 559.453C534.164 559.825 535.327 560.519 536.222 561.456C536.619 561.811 536.917 562.246 537.093 562.726C537.269 563.206 537.317 563.717 537.234 564.217Z" fill="black"/>
<path d="M526.253 562.436C527.966 562.436 529.354 562.048 529.354 561.568C529.354 561.089 527.966 560.701 526.253 560.701C524.541 560.701 523.153 561.089 523.153 561.568C523.153 562.048 524.541 562.436 526.253 562.436Z" fill="#F2F2F2"/>
<path opacity="0.1" d="M487.855 566.34V568.509H359.543V566.774L359.72 566.34H487.855Z" fill="black"/>
<path d="M196.343 321C195.041 320.903 193.737 321.168 192.604 321.76C191.492 322.452 190.791 323.666 190.075 324.796C187.339 329.165 183.634 332.971 179.196 335.971C175.964 338.124 171.854 340.809 172.407 344.78C172.699 346.091 173.232 347.348 173.983 348.499C176.965 353.973 185.102 358.203 184.302 364.45C187.265 359.939 183.302 357.709 186.264 353.199C187.675 351.05 190.126 348.626 192.256 349.975C192.97 350.426 193.438 351.236 194.181 351.633C195.953 352.578 197.838 350.771 199.407 349.49C204.816 345.074 212.508 346.231 219.238 347.607C222.416 348.256 225.906 349.109 227.785 351.871C230.255 355.502 225.438 359.424 224.221 363.53C224.122 363.879 224.117 364.246 224.208 364.598C224.298 364.95 224.481 365.276 224.74 365.55C225 365.824 225.328 366.036 225.698 366.169C226.067 366.302 226.466 366.352 226.862 366.314C228.881 366.133 231.274 365.984 231.393 365.178C233.934 365.26 237.048 364.999 238.136 362.592C238.469 361.64 238.645 360.649 238.658 359.65C239.058 355.608 240.944 351.92 242.194 348.074C243.444 344.227 243.987 339.718 241.878 336.307C241.125 335.173 240.195 334.144 239.115 333.254C227.148 322.721 211.413 320.984 196.343 321Z" fill="#2F2E41"/>
<path d="M186.905 372.34C186.905 372.34 189.507 392.065 179.964 393.643C170.421 395.221 188.64 422.046 188.64 422.046L232.018 426.78L221.608 395.221C221.608 395.221 214.667 392.854 219.005 377.074C223.343 361.294 186.905 372.34 186.905 372.34Z" fill="#FFB8B8"/>
<path d="M160.444 711.21L163.914 754.605H182.133L176.928 711.21H160.444Z" fill="#FFB8B8"/>
<path d="M294.05 629.155L296.653 665.449L316.607 657.559L308.799 627.578L294.05 629.155Z" fill="#FFB8B8"/>
<path d="M147.43 545.523C147.43 545.523 148.297 591.284 153.503 606.275C158.708 621.266 157.841 622.055 156.973 624.422C156.106 626.789 155.238 625.211 155.238 629.156C155.238 633.1 153.503 695.43 155.238 700.953C156.973 706.476 150.033 715.944 155.238 716.733C160.444 717.522 184.736 716.733 185.603 711.999C186.471 707.265 178.663 705.687 182.133 702.531C185.603 699.375 190.809 634.678 190.809 634.678L202.955 589.706L225.512 566.036H273.228L287.977 618.11C287.977 618.11 281.904 633.1 286.242 633.1C290.58 633.1 316.607 637.834 316.607 620.477C316.607 603.119 307.931 551.835 306.196 550.257C304.461 548.679 307.064 543.156 304.461 540.789C301.858 538.422 271.493 521.853 260.215 518.697C248.936 515.541 233.114 511.785 233.114 511.785L147.43 545.523Z" fill="#2F2E41"/>
<path d="M316.607 651.247C316.607 651.247 303.594 647.302 297.52 659.137C291.447 670.972 294.05 674.128 294.05 674.128C294.05 674.128 314.004 680.44 317.475 677.284C318.985 675.911 323.779 675.434 328.714 675.333C336.23 675.18 338.23 665.509 331.131 663.257C330.92 663.19 330.705 663.132 330.488 663.082C323.548 661.504 316.607 651.247 316.607 651.247Z" fill="#2F2E41"/>
<path d="M206.425 385.358C220.799 385.358 232.452 374.761 232.452 361.689C232.452 348.616 220.799 338.019 206.425 338.019C192.051 338.019 180.398 348.616 180.398 361.689C180.398 374.761 192.051 385.358 206.425 385.358Z" fill="#FFB8B8"/>
<path d="M172.59 403.505C172.59 403.505 215.101 411.395 225.512 398.771C235.923 386.147 240.26 434.276 240.26 434.276L245.466 484.771L237.658 512.385C237.658 512.385 196.882 542.367 183.868 544.734C170.854 547.101 150.9 548.679 150.9 548.679C150.9 548.679 156.973 461.101 156.973 459.523C156.973 457.945 172.59 403.505 172.59 403.505Z" fill="#4D29E7"/>
<path d="M185.518 388.708C185.518 388.708 176.06 383.78 173.457 388.514C170.854 393.248 146.562 405.083 143.96 405.083C141.357 405.083 149.165 470.569 145.695 478.459C142.224 486.349 125.741 543.945 135.284 548.679C144.827 553.413 137.887 543.945 147.43 555.78C156.973 567.614 203.822 567.614 206.425 562.881C209.028 558.147 185.603 522.642 189.941 489.505C194.279 456.367 201.22 410.606 195.147 404.294C189.074 397.982 185.518 388.708 185.518 388.708Z" fill="#2F2E41"/>
<path d="M216.836 394.037L218.044 390.255C218.044 390.255 254.142 401.138 255.877 408.239C257.612 415.34 256.744 465.046 250.671 468.991C244.598 472.936 235.923 479.248 241.996 488.716C248.069 498.184 255.009 508.44 260.215 509.229C265.42 510.018 274.964 515.541 272.361 521.064C269.758 526.587 238.525 516.33 238.525 516.33C238.525 516.33 217.704 502.128 218.571 480.037C219.439 457.945 216.836 394.037 216.836 394.037Z" fill="#2F2E41"/>
<path d="M247.201 487.138L226.379 522.642C226.379 522.642 196.014 551.046 213.366 554.202C230.717 557.358 240.26 528.165 240.26 528.165L262.817 498.973L247.201 487.138Z" fill="#FFB8B8"/>
<path d="M197.611 327.193C196.562 327.123 195.511 327.308 194.567 327.73C193.714 328.297 193.011 329.03 192.509 329.876C190.194 333.041 187.178 335.732 183.653 337.774C181.022 339.297 177.676 341.194 178.126 344.001C178.371 344.942 178.806 345.833 179.409 346.629C181.845 350.537 182.814 355.061 182.171 359.515L189.407 349.951C190.555 348.433 192.55 346.719 194.284 347.672C194.865 347.992 195.246 348.564 195.851 348.844C197.293 349.513 198.828 348.235 200.105 347.33C204.508 344.209 210.77 345.026 216.249 345.999C218.836 346.458 221.677 347.06 223.206 349.012C225.747 352.256 223.094 356.944 224.577 360.692C224.992 360.427 225.344 360.09 225.614 359.699C225.883 359.309 226.063 358.873 226.143 358.418C228.212 358.476 230.746 358.291 231.633 356.59C231.902 355.924 232.046 355.221 232.057 354.511C232.383 351.654 233.918 349.048 234.936 346.329C235.953 343.61 236.395 340.423 234.678 338.012C234.05 337.196 233.292 336.468 232.429 335.854C222.687 328.41 209.879 327.182 197.611 327.193Z" fill="#2F2E41"/>
<path d="M247.201 405.083L255.284 407.034C255.284 407.034 274.096 450.844 269.758 480.826C265.42 510.807 262.817 504.495 262.817 504.495C262.817 504.495 255.877 490.294 240.26 493.45L247.201 405.083Z" fill="#2F2E41"/>
<path d="M161.646 748.87C159.553 751.455 159.973 755.151 158.12 757.883C156.513 760.251 153.486 761.493 151.477 763.592C150.835 764.289 150.264 765.037 149.769 765.826C147.905 768.665 146.39 772.304 148.225 775.159C149.702 777.455 152.806 778.352 155.653 778.964C159.251 779.737 162.989 780.356 166.629 779.765C170.268 779.174 173.826 777.147 175.123 773.999C175.378 773.207 175.681 772.429 176.031 771.668C178.004 768.136 184.192 768.098 186.211 764.588C187.624 762.132 186.325 759.162 185.027 756.654L181.061 748.993C179.746 746.451 174.411 747.913 171.631 747.304C168.004 746.509 164.255 745.634 161.646 748.87Z" fill="#2F2E41"/>
<path d="M132.681 502.917L169.119 554.202C169.119 554.202 191.676 580.238 198.617 568.403C205.557 556.569 174.325 536.844 174.325 536.844L150.9 497.395L132.681 502.917Z" fill="#FFB8B8"/>
<path d="M150.9 406.661L143.96 405.083C143.96 405.083 130.078 409.028 126.608 425.597C123.138 442.165 125.741 508.44 130.078 509.229C134.416 510.018 151.503 497.69 154.238 500.304C156.973 502.917 148.297 489.505 150.9 482.404C153.503 475.303 150.9 406.661 150.9 406.661Z" fill="#2F2E41"/>
<path d="M477.083 441.879H454.66V446.788H477.083V441.879Z" fill="#4D29E7"/>
<path d="M554.735 441.879H546.845V446.788H554.735V441.879Z" fill="#4D29E7"/>
<path d="M570.514 441.879H562.624V446.788H570.514V441.879Z" fill="#4D29E7"/>
<path d="M538.54 441.879H484.973V446.788H538.54V441.879Z" fill="#4D29E7"/>
<path d="M448.846 473.6H426.423V478.509H448.846V473.6Z" fill="#4D29E7"/>
<path d="M526.498 473.6H518.608V478.509H526.498V473.6Z" fill="#4D29E7"/>
<path d="M542.277 473.6H534.388V478.509H542.277V473.6Z" fill="#4D29E7"/>
<path d="M510.303 473.6H456.736V478.509H510.303V473.6Z" fill="#4D29E7"/>
<path d="M541.447 452.83H519.023V457.74H541.447V452.83Z" fill="#4D29E7"/>
<path d="M571.76 452.83H549.336V457.74H571.76V452.83Z" fill="#4D29E7"/>
<path d="M434.313 452.83H426.423V457.74H434.313V452.83Z" fill="#4D29E7"/>
<path d="M450.092 452.83H442.202V457.74H450.092V452.83Z" fill="#4D29E7"/>
<path d="M511.549 452.83H457.982V457.74H511.549V452.83Z" fill="#4D29E7"/>
<path d="M494.939 463.404H472.516V468.313H494.939V463.404Z" fill="#4D29E7"/>
<path d="M464.626 463.404H442.202V468.313H464.626V463.404Z" fill="#4D29E7"/>
<path d="M434.313 463.404H426.423V468.313H434.313V463.404Z" fill="#4D29E7"/>
<path d="M571.76 463.404H563.87V468.313H571.76V463.404Z" fill="#4D29E7"/>
<path d="M555.98 463.404H502.413V468.313H555.98V463.404Z" fill="#4D29E7"/>
</g>
<defs>
<filter id="filter0_d" x="-172" y="352" width="715" height="727" filterUnits="userSpaceOnUse" color-interpolation-filters="sRGB">
<feFlood flood-opacity="0" result="BackgroundImageFix"/>
<feColorMatrix in="SourceAlpha" type="matrix" values="0 0 0 0 0 0 0 0 0 0 0 0 0 0 0 0 0 0 127 0"/>
<feOffset dy="4"/>
<feGaussianBlur stdDeviation="2"/>
<feColorMatrix type="matrix" values="0 0 0 0 0 0 0 0 0 0 0 0 0 0 0 0 0 0 0.4 0"/>
<feBlend mode="normal" in2="BackgroundImageFix" result="effect1_dropShadow"/>
<feBlend mode="normal" in="SourceGraphic" in2="effect1_dropShadow" result="shape"/>
</filter>
<linearGradient id="paint0_linear" x1="203.5" y1="211" x2="185.5" y2="1071" gradientUnits="userSpaceOnUse">
<stop stop-color="#5B3CDE"/>
<stop offset="1" stop-color="#0F3275"/>
</linearGradient>
<linearGradient id="paint1_linear" x1="-38.5" y1="0" x2="-38.5" y2="645" gradientUnits="userSpaceOnUse">
<stop stop-color="#4D29E7"/>
<stop offset="1" stop-color="#0F3275"/>
</linearGradient>
<linearGradient id="paint2_linear" x1="675.5" y1="759" x2="659.5" y2="1350" gradientUnits="userSpaceOnUse">
<stop stop-color="#0F3275"/>
<stop offset="1" stop-color="#4D29E7"/>
</linearGradient>
<clipPath id="clip0">
<rect width="536" height="459" fill="white" transform="translate(125 321)"/>
</clipPath>
</defs>
</svg>
